<?xml version="1.0" encoding="utf-8"?>
<!-- Generator: Adobe Illustrator 15.0.0, SVG Export Plug-In . SVG Version: 6.00 Build 0)  -->
<!DOCTYPE svg PUBLIC "-//W3C//DTD SVG 1.0//EN" "http://www.w3.org/TR/2001/REC-SVG-20010904/DTD/svg10.dtd">
<svg version="1.0" id="Layer_1" xmlns="http://www.w3.org/2000/svg" xmlns:xlink="http://www.w3.org/1999/xlink" x="0px" y="0px"
	 width="595.28px" height="841.89px" viewBox="0 0 595.28 841.89" enable-background="new 0 0 595.28 841.89" xml:space="preserve">
<rect x="36.844" y="4.953" fill="#FFFFFF" width="20.5" height="164.607"/>
<line fill="#FFFFFF" stroke="#000000" stroke-miterlimit="10" x1="47.094" y1="5.5" x2="47.094" y2="170.107"/>
<line fill="#FFFFFF" stroke="#000000" stroke-miterlimit="10" x1="36.844" y1="5.5" x2="57.344" y2="5.5"/>
<line fill="#FFFFFF" stroke="#000000" stroke-miterlimit="10" x1="36.844" y1="169.773" x2="57.344" y2="169.773"/>
<line fill="#FFFFFF" stroke="#000000" stroke-miterlimit="10" x1="36.844" y1="146" x2="57.344" y2="146"/>
<line fill="#FFFFFF" stroke="#000000" stroke-miterlimit="10" x1="36.844" y1="122.5" x2="57.344" y2="122.5"/>
<line fill="#FFFFFF" stroke="#000000" stroke-miterlimit="10" x1="36.844" y1="102.5" x2="57.344" y2="102.5"/>
<line fill="#FFFFFF" stroke="#000000" stroke-miterlimit="10" x1="36.844" y1="86.5" x2="57.344" y2="86.5"/>
<line fill="#FFFFFF" stroke="#000000" stroke-miterlimit="10" x1="36.844" y1="71.5" x2="57.344" y2="71.5"/>
<line fill="#FFFFFF" stroke="#000000" stroke-miterlimit="10" x1="36.844" y1="57.5" x2="57.344" y2="57.5"/>
<line fill="#FFFFFF" stroke="#000000" stroke-miterlimit="10" x1="36.844" y1="44.5" x2="57.344" y2="44.5"/>
<line fill="#FFFFFF" stroke="#000000" stroke-miterlimit="10" x1="36.844" y1="33.5" x2="57.344" y2="33.5"/>
<line fill="#FFFFFF" stroke="#000000" stroke-miterlimit="10" x1="36.844" y1="24.5" x2="57.344" y2="24.5"/>
<line fill="#FFFFFF" stroke="#000000" stroke-miterlimit="10" x1="36.844" y1="10.5" x2="57.344" y2="10.5"/>
<line fill="#FFFFFF" stroke="#000000" stroke-miterlimit="10" x1="36.844" y1="16.5" x2="57.344" y2="16.5"/>
</svg>
